<?xml version="1.0" encoding="utf-8"?><svg width="auto" height="5520" style="overflow:visible " version="1.1" xmlns="http://www.w3.org/2000/svg"><rect x="20" y="20" width="200" height="40" style="fill:white;stroke:black;stroke-width:1" /><text x="30" y="30" font-size="10" style="fill:blue">circuito</text><text x="30" y="40" font-size="8" style="fill:black">nombre: Silverstone</text><text x="30" y="50" font-size="8" style="fill:black">anchura: 15.5</text><text x="30" y="60" font-size="8" style="fill:black">fecha2024: 2024-07-07</text><text x="30" y="70" font-size="8" style="fill:black">horaInicio: 16:00:00</text><text x="30" y="80" font-size="8" style="fill:black">nVueltas: 52</text><text x="30" y="90" font-size="8" style="fill:black">localidad: Silverstone</text><text x="30" y="100" font-size="8" style="fill:black">país: Reino Unido</text><rect x="240" y="20" width="200" height="40" style="fill:white;stroke:black;stroke-width:1" /><text x="250" y="30" font-size="10" style="fill:blue">longitud</text><path d="M220 40 C240 40 220 40 240 40" style="fill:transparent;stroke:black" /><text x="250" y="40" font-size="8" style="fill:black">valor: 5.901</text><text x="250" y="50" font-size="8" style="fill:black">unidades: km</text><rect x="240" y="70" width="200" height="40" style="fill:white;stroke:black;stroke-width:1" /><text x="250" y="80" font-size="10" style="fill:blue">bibliografía</text><path d="M220 40 C240 40 220 90 240 90" style="fill:transparent;stroke:black" /><rect x="460" y="70" width="200" height="40" style="fill:white;stroke:black;stroke-width:1" /><text x="470" y="80" font-size="10" style="fill:blue">referencia</text><path d="M440 90 C460 90 440 90 460 90" style="fill:transparent;stroke:black" /><text x="470" y="90" font-size="8" style="fill:black">enlace: https://veloviewer.com/segment/655348/Silverstone+F1+Circuit</text><rect x="460" y="120" width="200" height="40" style="fill:white;stroke:black;stroke-width:1" /><text x="470" y="130" font-size="10" style="fill:blue">referencia</text><path d="M440 90 C460 90 440 140 460 140" style="fill:transparent;stroke:black" /><text x="470" y="140" font-size="8" style="fill:black">enlace: https://es.wikipedia.org/wiki/Circuito_de_Silverstone</text><rect x="460" y="170" width="200" height="40" style="fill:white;stroke:black;stroke-width:1" /><text x="470" y="180" font-size="10" style="fill:blue">referencia</text><path d="M440 90 C460 90 440 190 460 190" style="fill:transparent;stroke:black" /><text x="470" y="190" font-size="8" style="fill:black">enlace: https://www.circuitosdecarreras.com/reino-unido/circuito-silverstone/</text><rect x="240" y="270" width="200" height="40" style="fill:white;stroke:black;stroke-width:1" /><text x="250" y="280" font-size="10" style="fill:blue">galeríaFotos</text><path d="M220 40 C240 40 220 290 240 290" style="fill:transparent;stroke:black" /><rect x="460" y="270" width="200" height="40" style="fill:white;stroke:black;stroke-width:1" /><text x="470" y="280" font-size="10" style="fill:blue">foto</text><path d="M440 290 C460 290 440 290 460 290" style="fill:transparent;stroke:black" /><text x="470" y="290" font-size="8" style="fill:black">enlace: multimedia/imagenes/silverstone1.jpg</text><rect x="460" y="320" width="200" height="40" style="fill:white;stroke:black;stroke-width:1" /><text x="470" y="330" font-size="10" style="fill:blue">foto</text><path d="M440 290 C460 290 440 340 460 340" style="fill:transparent;stroke:black" /><text x="470" y="340" font-size="8" style="fill:black">enlace: multimedia/imagenes/silverstone2.jpg</text><rect x="240" y="420" width="200" height="40" style="fill:white;stroke:black;stroke-width:1" /><text x="250" y="430" font-size="10" style="fill:blue">galeríaVídeos</text><path d="M220 40 C240 40 220 440 240 440" style="fill:transparent;stroke:black" /><rect x="460" y="420" width="200" height="40" style="fill:white;stroke:black;stroke-width:1" /><text x="470" y="430" font-size="10" style="fill:blue">vídeo</text><path d="M440 440 C460 440 440 440 460 440" style="fill:transparent;stroke:black" /><text x="470" y="440" font-size="8" style="fill:black">enlace: multimedia/videos/silverstone1.mp3</text><rect x="460" y="470" width="200" height="40" style="fill:white;stroke:black;stroke-width:1" /><text x="470" y="480" font-size="10" style="fill:blue">vídeo</text><path d="M440 440 C460 440 440 490 460 490" style="fill:transparent;stroke:black" /><text x="470" y="490" font-size="8" style="fill:black">enlace: multimedia/videos/silverstone2.mp3</text><rect x="240" y="570" width="200" height="40" style="fill:white;stroke:black;stroke-width:1" /><text x="250" y="580" font-size="10" style="fill:blue">coordenadas</text><path d="M220 40 C240 40 220 590 240 590" style="fill:transparent;stroke:black" /><text x="250" y="590" font-size="8" style="fill:black">longitud: -1.022263</text><text x="250" y="600" font-size="8" style="fill:black">latitud: 52.069219</text><text x="250" y="610" font-size="8" style="fill:black">altitud: 0.0</text><rect x="240" y="620" width="200" height="40" style="fill:white;stroke:black;stroke-width:1" /><text x="250" y="630" font-size="10" style="fill:blue">puntos</text><path d="M220 40 C240 40 220 640 240 640" style="fill:transparent;stroke:black" /><rect x="460" y="620" width="200" height="40" style="fill:white;stroke:black;stroke-width:1" /><text x="470" y="630" font-size="10" style="fill:blue">tramo</text><path d="M440 640 C460 640 440 640 460 640" style="fill:transparent;stroke:black" /><rect x="680" y="620" width="200" height="40" style="fill:white;stroke:black;stroke-width:1" /><text x="690" y="630" font-size="10" style="fill:blue">distancia</text><path d="M660 640 C680 640 660 640 680 640" style="fill:transparent;stroke:black" /><text x="690" y="640" font-size="8" style="fill:black">valor: 0.3</text><text x="690" y="650" font-size="8" style="fill:black">unidades: km</text><rect x="680" y="670" width="200" height="40" style="fill:white;stroke:black;stroke-width:1" /><text x="690" y="680" font-size="10" style="fill:blue">coordenadas</text><path d="M660 640 C680 640 660 690 680 690" style="fill:transparent;stroke:black" /><text x="690" y="690" font-size="8" style="fill:black">longitud: -1.022263</text><text x="690" y="700" font-size="8" style="fill:black">latitud: 52.069219</text><text x="690" y="710" font-size="8" style="fill:black">altitud: 0.0</text><rect x="680" y="720" width="200" height="40" style="fill:white;stroke:black;stroke-width:1" /><text x="690" y="730" font-size="10" style="fill:blue">sector</text><path d="M660 640 C680 640 660 740 680 740" style="fill:transparent;stroke:black" /><rect x="746" y="720" width="137" height="40" style="fill:green;stroke:black;stroke-width:1" /><text x="756" y="730" font-size="8" style="fill:white">1</text><rect x="460" y="820" width="200" height="40" style="fill:white;stroke:black;stroke-width:1" /><text x="470" y="830" font-size="10" style="fill:blue">tramo</text><path d="M440 640 C460 640 440 840 460 840" style="fill:transparent;stroke:black" /><rect x="680" y="820" width="200" height="40" style="fill:white;stroke:black;stroke-width:1" /><text x="690" y="830" font-size="10" style="fill:blue">distancia</text><path d="M660 840 C680 840 660 840 680 840" style="fill:transparent;stroke:black" /><text x="690" y="840" font-size="8" style="fill:black">valor: 0.2</text><text x="690" y="850" font-size="8" style="fill:black">unidades: km</text><rect x="680" y="870" width="200" height="40" style="fill:white;stroke:black;stroke-width:1" /><text x="690" y="880" font-size="10" style="fill:blue">coordenadas</text><path d="M660 840 C680 840 660 890 680 890" style="fill:transparent;stroke:black" /><text x="690" y="890" font-size="8" style="fill:black">longitud: -1.019494</text><text x="690" y="900" font-size="8" style="fill:black">latitud: 52.071283</text><text x="690" y="910" font-size="8" style="fill:black">altitud: 0.0</text><rect x="680" y="920" width="200" height="40" style="fill:white;stroke:black;stroke-width:1" /><text x="690" y="930" font-size="10" style="fill:blue">sector</text><path d="M660 840 C680 840 660 940 680 940" style="fill:transparent;stroke:black" /><rect x="746" y="920" width="137" height="40" style="fill:green;stroke:black;stroke-width:1" /><text x="756" y="930" font-size="8" style="fill:white">2</text><rect x="460" y="1020" width="200" height="40" style="fill:white;stroke:black;stroke-width:1" /><text x="470" y="1030" font-size="10" style="fill:blue">tramo</text><path d="M440 640 C460 640 440 1040 460 1040" style="fill:transparent;stroke:black" /><rect x="680" y="1020" width="200" height="40" style="fill:white;stroke:black;stroke-width:1" /><text x="690" y="1030" font-size="10" style="fill:blue">distancia</text><path d="M660 1040 C680 1040 660 1040 680 1040" style="fill:transparent;stroke:black" /><text x="690" y="1040" font-size="8" style="fill:black">valor: 0.26</text><text x="690" y="1050" font-size="8" style="fill:black">unidades: km</text><rect x="680" y="1070" width="200" height="40" style="fill:white;stroke:black;stroke-width:1" /><text x="690" y="1080" font-size="10" style="fill:blue">coordenadas</text><path d="M660 1040 C680 1040 660 1090 680 1090" style="fill:transparent;stroke:black" /><text x="690" y="1090" font-size="8" style="fill:black">longitud: -1.016555</text><text x="690" y="1100" font-size="8" style="fill:black">latitud: 52.071243</text><text x="690" y="1110" font-size="8" style="fill:black">altitud: 0.0</text><rect x="680" y="1120" width="200" height="40" style="fill:white;stroke:black;stroke-width:1" /><text x="690" y="1130" font-size="10" style="fill:blue">sector</text><path d="M660 1040 C680 1040 660 1140 680 1140" style="fill:transparent;stroke:black" /><rect x="746" y="1120" width="137" height="40" style="fill:green;stroke:black;stroke-width:1" /><text x="756" y="1130" font-size="8" style="fill:white">3</text><rect x="460" y="1220" width="200" height="40" style="fill:white;stroke:black;stroke-width:1" /><text x="470" y="1230" font-size="10" style="fill:blue">tramo</text><path d="M440 640 C460 640 440 1240 460 1240" style="fill:transparent;stroke:black" /><rect x="680" y="1220" width="200" height="40" style="fill:white;stroke:black;stroke-width:1" /><text x="690" y="1230" font-size="10" style="fill:blue">distancia</text><path d="M660 1240 C680 1240 660 1240 680 1240" style="fill:transparent;stroke:black" /><text x="690" y="1240" font-size="8" style="fill:black">valor: 0.14</text><text x="690" y="1250" font-size="8" style="fill:black">unidades: km</text><rect x="680" y="1270" width="200" height="40" style="fill:white;stroke:black;stroke-width:1" /><text x="690" y="1280" font-size="10" style="fill:blue">coordenadas</text><path d="M660 1240 C680 1240 660 1290 680 1290" style="fill:transparent;stroke:black" /><text x="690" y="1290" font-size="8" style="fill:black">longitud: -1.013368</text><text x="690" y="1300" font-size="8" style="fill:black">latitud: 52.072536</text><text x="690" y="1310" font-size="8" style="fill:black">altitud: 0.0</text><rect x="680" y="1320" width="200" height="40" style="fill:white;stroke:black;stroke-width:1" /><text x="690" y="1330" font-size="10" style="fill:blue">sector</text><path d="M660 1240 C680 1240 660 1340 680 1340" style="fill:transparent;stroke:black" /><rect x="746" y="1320" width="137" height="40" style="fill:green;stroke:black;stroke-width:1" /><text x="756" y="1330" font-size="8" style="fill:white">4</text><rect x="460" y="1420" width="200" height="40" style="fill:white;stroke:black;stroke-width:1" /><text x="470" y="1430" font-size="10" style="fill:blue">tramo</text><path d="M440 640 C460 640 440 1440 460 1440" style="fill:transparent;stroke:black" /><rect x="680" y="1420" width="200" height="40" style="fill:white;stroke:black;stroke-width:1" /><text x="690" y="1430" font-size="10" style="fill:blue">distancia</text><path d="M660 1440 C680 1440 660 1440 680 1440" style="fill:transparent;stroke:black" /><text x="690" y="1440" font-size="8" style="fill:black">valor: 0.67</text><text x="690" y="1450" font-size="8" style="fill:black">unidades: km</text><rect x="680" y="1470" width="200" height="40" style="fill:white;stroke:black;stroke-width:1" /><text x="690" y="1480" font-size="10" style="fill:blue">coordenadas</text><path d="M660 1440 C680 1440 660 1490 680 1490" style="fill:transparent;stroke:black" /><text x="690" y="1490" font-size="8" style="fill:black">longitud: -1.011479</text><text x="690" y="1500" font-size="8" style="fill:black">latitud: 52.073106</text><text x="690" y="1510" font-size="8" style="fill:black">altitud: 0.0</text><rect x="680" y="1520" width="200" height="40" style="fill:white;stroke:black;stroke-width:1" /><text x="690" y="1530" font-size="10" style="fill:blue">sector</text><path d="M660 1440 C680 1440 660 1540 680 1540" style="fill:transparent;stroke:black" /><rect x="746" y="1520" width="137" height="40" style="fill:green;stroke:black;stroke-width:1" /><text x="756" y="1530" font-size="8" style="fill:white">5</text><rect x="460" y="1620" width="200" height="40" style="fill:white;stroke:black;stroke-width:1" /><text x="470" y="1630" font-size="10" style="fill:blue">tramo</text><path d="M440 640 C460 640 440 1640 460 1640" style="fill:transparent;stroke:black" /><rect x="680" y="1620" width="200" height="40" style="fill:white;stroke:black;stroke-width:1" /><text x="690" y="1630" font-size="10" style="fill:blue">distancia</text><path d="M660 1640 C680 1640 660 1640 680 1640" style="fill:transparent;stroke:black" /><text x="690" y="1640" font-size="8" style="fill:black">valor: 0.09</text><text x="690" y="1650" font-size="8" style="fill:black">unidades: km</text><rect x="680" y="1670" width="200" height="40" style="fill:white;stroke:black;stroke-width:1" /><text x="690" y="1680" font-size="10" style="fill:blue">coordenadas</text><path d="M660 1640 C680 1640 660 1690 680 1690" style="fill:transparent;stroke:black" /><text x="690" y="1690" font-size="8" style="fill:black">longitud: -1.018780</text><text x="690" y="1700" font-size="8" style="fill:black">latitud: 52.077129</text><text x="690" y="1710" font-size="8" style="fill:black">altitud: 0.0</text><rect x="680" y="1720" width="200" height="40" style="fill:white;stroke:black;stroke-width:1" /><text x="690" y="1730" font-size="10" style="fill:blue">sector</text><path d="M660 1640 C680 1640 660 1740 680 1740" style="fill:transparent;stroke:black" /><rect x="746" y="1720" width="137" height="40" style="fill:green;stroke:black;stroke-width:1" /><text x="756" y="1730" font-size="8" style="fill:white">6</text><rect x="460" y="1820" width="200" height="40" style="fill:white;stroke:black;stroke-width:1" /><text x="470" y="1830" font-size="10" style="fill:blue">tramo</text><path d="M440 640 C460 640 440 1840 460 1840" style="fill:transparent;stroke:black" /><rect x="680" y="1820" width="200" height="40" style="fill:white;stroke:black;stroke-width:1" /><text x="690" y="1830" font-size="10" style="fill:blue">distancia</text><path d="M660 1840 C680 1840 660 1840 680 1840" style="fill:transparent;stroke:black" /><text x="690" y="1840" font-size="8" style="fill:black">valor: 0.11</text><text x="690" y="1850" font-size="8" style="fill:black">unidades: km</text><rect x="680" y="1870" width="200" height="40" style="fill:white;stroke:black;stroke-width:1" /><text x="690" y="1880" font-size="10" style="fill:blue">coordenadas</text><path d="M660 1840 C680 1840 660 1890 680 1890" style="fill:transparent;stroke:black" /><text x="690" y="1890" font-size="8" style="fill:black">longitud: -1.020003</text><text x="690" y="1900" font-size="8" style="fill:black">latitud: 52.076918</text><text x="690" y="1910" font-size="8" style="fill:black">altitud: 0.0</text><rect x="680" y="1920" width="200" height="40" style="fill:white;stroke:black;stroke-width:1" /><text x="690" y="1930" font-size="10" style="fill:blue">sector</text><path d="M660 1840 C680 1840 660 1940 680 1940" style="fill:transparent;stroke:black" /><rect x="746" y="1920" width="137" height="40" style="fill:green;stroke:black;stroke-width:1" /><text x="756" y="1930" font-size="8" style="fill:white">7</text><rect x="460" y="2020" width="200" height="40" style="fill:white;stroke:black;stroke-width:1" /><text x="470" y="2030" font-size="10" style="fill:blue">tramo</text><path d="M440 640 C460 640 440 2040 460 2040" style="fill:transparent;stroke:black" /><rect x="680" y="2020" width="200" height="40" style="fill:white;stroke:black;stroke-width:1" /><text x="690" y="2030" font-size="10" style="fill:blue">distancia</text><path d="M660 2040 C680 2040 660 2040 680 2040" style="fill:transparent;stroke:black" /><text x="690" y="2040" font-size="8" style="fill:black">valor: 0.05</text><text x="690" y="2050" font-size="8" style="fill:black">unidades: km</text><rect x="680" y="2070" width="200" height="40" style="fill:white;stroke:black;stroke-width:1" /><text x="690" y="2080" font-size="10" style="fill:blue">coordenadas</text><path d="M660 2040 C680 2040 660 2090 680 2090" style="fill:transparent;stroke:black" /><text x="690" y="2090" font-size="8" style="fill:black">longitud: -1.020368</text><text x="690" y="2100" font-size="8" style="fill:black">latitud: 52.075929</text><text x="690" y="2110" font-size="8" style="fill:black">altitud: 0.0</text><rect x="680" y="2120" width="200" height="40" style="fill:white;stroke:black;stroke-width:1" /><text x="690" y="2130" font-size="10" style="fill:blue">sector</text><path d="M660 2040 C680 2040 660 2140 680 2140" style="fill:transparent;stroke:black" /><rect x="746" y="2120" width="137" height="40" style="fill:green;stroke:black;stroke-width:1" /><text x="756" y="2130" font-size="8" style="fill:white">8</text><rect x="460" y="2220" width="200" height="40" style="fill:white;stroke:black;stroke-width:1" /><text x="470" y="2230" font-size="10" style="fill:blue">tramo</text><path d="M440 640 C460 640 440 2240 460 2240" style="fill:transparent;stroke:black" /><rect x="680" y="2220" width="200" height="40" style="fill:white;stroke:black;stroke-width:1" /><text x="690" y="2230" font-size="10" style="fill:blue">distancia</text><path d="M660 2240 C680 2240 660 2240 680 2240" style="fill:transparent;stroke:black" /><text x="690" y="2240" font-size="8" style="fill:black">valor: 0.06</text><text x="690" y="2250" font-size="8" style="fill:black">unidades: km</text><rect x="680" y="2270" width="200" height="40" style="fill:white;stroke:black;stroke-width:1" /><text x="690" y="2280" font-size="10" style="fill:blue">coordenadas</text><path d="M660 2240 C680 2240 660 2290 680 2290" style="fill:transparent;stroke:black" /><text x="690" y="2290" font-size="8" style="fill:black">longitud: -1.021141</text><text x="690" y="2300" font-size="8" style="fill:black">latitud: 52.075836</text><text x="690" y="2310" font-size="8" style="fill:black">altitud: 0.0</text><rect x="680" y="2320" width="200" height="40" style="fill:white;stroke:black;stroke-width:1" /><text x="690" y="2330" font-size="10" style="fill:blue">sector</text><path d="M660 2240 C680 2240 660 2340 680 2340" style="fill:transparent;stroke:black" /><rect x="746" y="2320" width="137" height="40" style="fill:green;stroke:black;stroke-width:1" /><text x="756" y="2330" font-size="8" style="fill:white">9</text><rect x="460" y="2420" width="200" height="40" style="fill:white;stroke:black;stroke-width:1" /><text x="470" y="2430" font-size="10" style="fill:blue">tramo</text><path d="M440 640 C460 640 440 2440 460 2440" style="fill:transparent;stroke:black" /><rect x="680" y="2420" width="200" height="40" style="fill:white;stroke:black;stroke-width:1" /><text x="690" y="2430" font-size="10" style="fill:blue">distancia</text><path d="M660 2440 C680 2440 660 2440 680 2440" style="fill:transparent;stroke:black" /><text x="690" y="2440" font-size="8" style="fill:black">valor: 0.25</text><text x="690" y="2450" font-size="8" style="fill:black">unidades: km</text><rect x="680" y="2470" width="200" height="40" style="fill:white;stroke:black;stroke-width:1" /><text x="690" y="2480" font-size="10" style="fill:blue">coordenadas</text><path d="M660 2440 C680 2440 660 2490 680 2490" style="fill:transparent;stroke:black" /><text x="690" y="2490" font-size="8" style="fill:black">longitud: -1.021741</text><text x="690" y="2500" font-size="8" style="fill:black">latitud: 52.076272</text><text x="690" y="2510" font-size="8" style="fill:black">altitud: 0.0</text><rect x="680" y="2520" width="200" height="40" style="fill:white;stroke:black;stroke-width:1" /><text x="690" y="2530" font-size="10" style="fill:blue">sector</text><path d="M660 2440 C680 2440 660 2540 680 2540" style="fill:transparent;stroke:black" /><rect x="746" y="2520" width="137" height="40" style="fill:green;stroke:black;stroke-width:1" /><text x="756" y="2530" font-size="8" style="fill:white">10</text><rect x="460" y="2620" width="200" height="40" style="fill:white;stroke:black;stroke-width:1" /><text x="470" y="2630" font-size="10" style="fill:blue">tramo</text><path d="M440 640 C460 640 440 2640 460 2640" style="fill:transparent;stroke:black" /><rect x="680" y="2620" width="200" height="40" style="fill:white;stroke:black;stroke-width:1" /><text x="690" y="2630" font-size="10" style="fill:blue">distancia</text><path d="M660 2640 C680 2640 660 2640 680 2640" style="fill:transparent;stroke:black" /><text x="690" y="2640" font-size="8" style="fill:black">valor: 0.1</text><text x="690" y="2650" font-size="8" style="fill:black">unidades: km</text><rect x="680" y="2670" width="200" height="40" style="fill:white;stroke:black;stroke-width:1" /><text x="690" y="2680" font-size="10" style="fill:blue">coordenadas</text><path d="M660 2640 C680 2640 660 2690 680 2690" style="fill:transparent;stroke:black" /><text x="690" y="2690" font-size="8" style="fill:black">longitud: -1.019960</text><text x="690" y="2700" font-size="8" style="fill:black">latitud: 52.078184</text><text x="690" y="2710" font-size="8" style="fill:black">altitud: 0.0</text><rect x="680" y="2720" width="200" height="40" style="fill:white;stroke:black;stroke-width:1" /><text x="690" y="2730" font-size="10" style="fill:blue">sector</text><path d="M660 2640 C680 2640 660 2740 680 2740" style="fill:transparent;stroke:black" /><rect x="746" y="2720" width="137" height="40" style="fill:green;stroke:black;stroke-width:1" /><text x="756" y="2730" font-size="8" style="fill:white">11</text><rect x="460" y="2820" width="200" height="40" style="fill:white;stroke:black;stroke-width:1" /><text x="470" y="2830" font-size="10" style="fill:blue">tramo</text><path d="M440 640 C460 640 440 2840 460 2840" style="fill:transparent;stroke:black" /><rect x="680" y="2820" width="200" height="40" style="fill:white;stroke:black;stroke-width:1" /><text x="690" y="2830" font-size="10" style="fill:blue">distancia</text><path d="M660 2840 C680 2840 660 2840 680 2840" style="fill:transparent;stroke:black" /><text x="690" y="2840" font-size="8" style="fill:black">valor: 0.48</text><text x="690" y="2850" font-size="8" style="fill:black">unidades: km</text><rect x="680" y="2870" width="200" height="40" style="fill:white;stroke:black;stroke-width:1" /><text x="690" y="2880" font-size="10" style="fill:blue">coordenadas</text><path d="M660 2840 C680 2840 660 2890 680 2890" style="fill:transparent;stroke:black" /><text x="690" y="2890" font-size="8" style="fill:black">longitud: -1.018587</text><text x="690" y="2900" font-size="8" style="fill:black">latitud: 52.078579</text><text x="690" y="2910" font-size="8" style="fill:black">altitud: 0.0</text><rect x="680" y="2920" width="200" height="40" style="fill:white;stroke:black;stroke-width:1" /><text x="690" y="2930" font-size="10" style="fill:blue">sector</text><path d="M660 2840 C680 2840 660 2940 680 2940" style="fill:transparent;stroke:black" /><rect x="746" y="2920" width="137" height="40" style="fill:green;stroke:black;stroke-width:1" /><text x="756" y="2930" font-size="8" style="fill:white">12</text><rect x="460" y="3020" width="200" height="40" style="fill:white;stroke:black;stroke-width:1" /><text x="470" y="3030" font-size="10" style="fill:blue">tramo</text><path d="M440 640 C460 640 440 3040 460 3040" style="fill:transparent;stroke:black" /><rect x="680" y="3020" width="200" height="40" style="fill:white;stroke:black;stroke-width:1" /><text x="690" y="3030" font-size="10" style="fill:blue">distancia</text><path d="M660 3040 C680 3040 660 3040 680 3040" style="fill:transparent;stroke:black" /><text x="690" y="3040" font-size="8" style="fill:black">valor: 0.52</text><text x="690" y="3050" font-size="8" style="fill:black">unidades: km</text><rect x="680" y="3070" width="200" height="40" style="fill:white;stroke:black;stroke-width:1" /><text x="690" y="3080" font-size="10" style="fill:blue">coordenadas</text><path d="M660 3040 C680 3040 660 3090 680 3090" style="fill:transparent;stroke:black" /><text x="690" y="3090" font-size="8" style="fill:black">longitud: -1.011656</text><text x="690" y="3100" font-size="8" style="fill:black">latitud: 52.078843</text><text x="690" y="3110" font-size="8" style="fill:black">altitud: 0.0</text><rect x="680" y="3120" width="200" height="40" style="fill:white;stroke:black;stroke-width:1" /><text x="690" y="3130" font-size="10" style="fill:blue">sector</text><path d="M660 3040 C680 3040 660 3140 680 3140" style="fill:transparent;stroke:black" /><rect x="746" y="3120" width="137" height="40" style="fill:green;stroke:black;stroke-width:1" /><text x="756" y="3130" font-size="8" style="fill:white">13</text><rect x="460" y="3220" width="200" height="40" style="fill:white;stroke:black;stroke-width:1" /><text x="470" y="3230" font-size="10" style="fill:blue">tramo</text><path d="M440 640 C460 640 440 3240 460 3240" style="fill:transparent;stroke:black" /><rect x="680" y="3220" width="200" height="40" style="fill:white;stroke:black;stroke-width:1" /><text x="690" y="3230" font-size="10" style="fill:blue">distancia</text><path d="M660 3240 C680 3240 660 3240 680 3240" style="fill:transparent;stroke:black" /><text x="690" y="3240" font-size="8" style="fill:black">valor: 0.1</text><text x="690" y="3250" font-size="8" style="fill:black">unidades: km</text><rect x="680" y="3270" width="200" height="40" style="fill:white;stroke:black;stroke-width:1" /><text x="690" y="3280" font-size="10" style="fill:blue">coordenadas</text><path d="M660 3240 C680 3240 660 3290 680 3290" style="fill:transparent;stroke:black" /><text x="690" y="3290" font-size="8" style="fill:black">longitud: -1.010139</text><text x="690" y="3300" font-size="8" style="fill:black">latitud: 52.074238</text><text x="690" y="3310" font-size="8" style="fill:black">altitud: 0.0</text><rect x="680" y="3320" width="200" height="40" style="fill:white;stroke:black;stroke-width:1" /><text x="690" y="3330" font-size="10" style="fill:blue">sector</text><path d="M660 3240 C680 3240 660 3340 680 3340" style="fill:transparent;stroke:black" /><rect x="746" y="3320" width="137" height="40" style="fill:green;stroke:black;stroke-width:1" /><text x="756" y="3330" font-size="8" style="fill:white">14</text><rect x="460" y="3420" width="200" height="40" style="fill:white;stroke:black;stroke-width:1" /><text x="470" y="3430" font-size="10" style="fill:blue">tramo</text><path d="M440 640 C460 640 440 3440 460 3440" style="fill:transparent;stroke:black" /><rect x="680" y="3420" width="200" height="40" style="fill:white;stroke:black;stroke-width:1" /><text x="690" y="3430" font-size="10" style="fill:blue">distancia</text><path d="M660 3440 C680 3440 660 3440 680 3440" style="fill:transparent;stroke:black" /><text x="690" y="3440" font-size="8" style="fill:black">valor: 0.16</text><text x="690" y="3450" font-size="8" style="fill:black">unidades: km</text><rect x="680" y="3470" width="200" height="40" style="fill:white;stroke:black;stroke-width:1" /><text x="690" y="3480" font-size="10" style="fill:blue">coordenadas</text><path d="M660 3440 C680 3440 660 3490 680 3490" style="fill:transparent;stroke:black" /><text x="690" y="3490" font-size="8" style="fill:black">longitud: -1.009499</text><text x="690" y="3500" font-size="8" style="fill:black">latitud: 52.073410</text><text x="690" y="3510" font-size="8" style="fill:black">altitud: 0.0</text><rect x="680" y="3520" width="200" height="40" style="fill:white;stroke:black;stroke-width:1" /><text x="690" y="3530" font-size="10" style="fill:blue">sector</text><path d="M660 3440 C680 3440 660 3540 680 3540" style="fill:transparent;stroke:black" /><rect x="746" y="3520" width="137" height="40" style="fill:green;stroke:black;stroke-width:1" /><text x="756" y="3530" font-size="8" style="fill:white">15</text><rect x="460" y="3620" width="200" height="40" style="fill:white;stroke:black;stroke-width:1" /><text x="470" y="3630" font-size="10" style="fill:blue">tramo</text><path d="M440 640 C460 640 440 3640 460 3640" style="fill:transparent;stroke:black" /><rect x="680" y="3620" width="200" height="40" style="fill:white;stroke:black;stroke-width:1" /><text x="690" y="3630" font-size="10" style="fill:blue">distancia</text><path d="M660 3640 C680 3640 660 3640 680 3640" style="fill:transparent;stroke:black" /><text x="690" y="3640" font-size="8" style="fill:black">valor: 0.13</text><text x="690" y="3650" font-size="8" style="fill:black">unidades: km</text><rect x="680" y="3670" width="200" height="40" style="fill:white;stroke:black;stroke-width:1" /><text x="690" y="3680" font-size="10" style="fill:blue">coordenadas</text><path d="M660 3640 C680 3640 660 3690 680 3690" style="fill:transparent;stroke:black" /><text x="690" y="3690" font-size="8" style="fill:black">longitud: -1.010046</text><text x="690" y="3700" font-size="8" style="fill:black">latitud: 52.072049</text><text x="690" y="3710" font-size="8" style="fill:black">altitud: 0.0</text><rect x="680" y="3720" width="200" height="40" style="fill:white;stroke:black;stroke-width:1" /><text x="690" y="3730" font-size="10" style="fill:blue">sector</text><path d="M660 3640 C680 3640 660 3740 680 3740" style="fill:transparent;stroke:black" /><rect x="746" y="3720" width="137" height="40" style="fill:green;stroke:black;stroke-width:1" /><text x="756" y="3730" font-size="8" style="fill:white">16</text><rect x="460" y="3820" width="200" height="40" style="fill:white;stroke:black;stroke-width:1" /><text x="470" y="3830" font-size="10" style="fill:blue">tramo</text><path d="M440 640 C460 640 440 3840 460 3840" style="fill:transparent;stroke:black" /><rect x="680" y="3820" width="200" height="40" style="fill:white;stroke:black;stroke-width:1" /><text x="690" y="3830" font-size="10" style="fill:blue">distancia</text><path d="M660 3840 C680 3840 660 3840 680 3840" style="fill:transparent;stroke:black" /><text x="690" y="3840" font-size="8" style="fill:black">valor: 0.16</text><text x="690" y="3850" font-size="8" style="fill:black">unidades: km</text><rect x="680" y="3870" width="200" height="40" style="fill:white;stroke:black;stroke-width:1" /><text x="690" y="3880" font-size="10" style="fill:blue">coordenadas</text><path d="M660 3840 C680 3840 660 3890 680 3890" style="fill:transparent;stroke:black" /><text x="690" y="3890" font-size="8" style="fill:black">longitud: -1.009275</text><text x="690" y="3900" font-size="8" style="fill:black">latitud: 52.071003</text><text x="690" y="3910" font-size="8" style="fill:black">altitud: 0.0</text><rect x="680" y="3920" width="200" height="40" style="fill:white;stroke:black;stroke-width:1" /><text x="690" y="3930" font-size="10" style="fill:blue">sector</text><path d="M660 3840 C680 3840 660 3940 680 3940" style="fill:transparent;stroke:black" /><rect x="746" y="3920" width="137" height="40" style="fill:green;stroke:black;stroke-width:1" /><text x="756" y="3930" font-size="8" style="fill:white">17</text><rect x="460" y="4020" width="200" height="40" style="fill:white;stroke:black;stroke-width:1" /><text x="470" y="4030" font-size="10" style="fill:blue">tramo</text><path d="M440 640 C460 640 440 4040 460 4040" style="fill:transparent;stroke:black" /><rect x="680" y="4020" width="200" height="40" style="fill:white;stroke:black;stroke-width:1" /><text x="690" y="4030" font-size="10" style="fill:blue">distancia</text><path d="M660 4040 C680 4040 660 4040 680 4040" style="fill:transparent;stroke:black" /><text x="690" y="4040" font-size="8" style="fill:black">valor: 0.82</text><text x="690" y="4050" font-size="8" style="fill:black">unidades: km</text><rect x="680" y="4070" width="200" height="40" style="fill:white;stroke:black;stroke-width:1" /><text x="690" y="4080" font-size="10" style="fill:blue">coordenadas</text><path d="M660 4040 C680 4040 660 4090 680 4090" style="fill:transparent;stroke:black" /><text x="690" y="4090" font-size="8" style="fill:black">longitud: -1.010920</text><text x="690" y="4100" font-size="8" style="fill:black">latitud: 52.069994</text><text x="690" y="4110" font-size="8" style="fill:black">altitud: 0.0</text><rect x="680" y="4120" width="200" height="40" style="fill:white;stroke:black;stroke-width:1" /><text x="690" y="4130" font-size="10" style="fill:blue">sector</text><path d="M660 4040 C680 4040 660 4140 680 4140" style="fill:transparent;stroke:black" /><rect x="746" y="4120" width="137" height="40" style="fill:green;stroke:black;stroke-width:1" /><text x="756" y="4130" font-size="8" style="fill:white">18</text><rect x="460" y="4220" width="200" height="40" style="fill:white;stroke:black;stroke-width:1" /><text x="470" y="4230" font-size="10" style="fill:blue">tramo</text><path d="M440 640 C460 640 440 4240 460 4240" style="fill:transparent;stroke:black" /><rect x="680" y="4220" width="200" height="40" style="fill:white;stroke:black;stroke-width:1" /><text x="690" y="4230" font-size="10" style="fill:blue">distancia</text><path d="M660 4240 C680 4240 660 4240 680 4240" style="fill:transparent;stroke:black" /><text x="690" y="4240" font-size="8" style="fill:black">valor: 0.11</text><text x="690" y="4250" font-size="8" style="fill:black">unidades: km</text><rect x="680" y="4270" width="200" height="40" style="fill:white;stroke:black;stroke-width:1" /><text x="690" y="4280" font-size="10" style="fill:blue">coordenadas</text><path d="M660 4240 C680 4240 660 4290 680 4290" style="fill:transparent;stroke:black" /><text x="690" y="4290" font-size="8" style="fill:black">longitud: -1.016964</text><text x="690" y="4300" font-size="8" style="fill:black">latitud: 52.063665</text><text x="690" y="4310" font-size="8" style="fill:black">altitud: 0.0</text><rect x="680" y="4320" width="200" height="40" style="fill:white;stroke:black;stroke-width:1" /><text x="690" y="4330" font-size="10" style="fill:blue">sector</text><path d="M660 4240 C680 4240 660 4340 680 4340" style="fill:transparent;stroke:black" /><rect x="746" y="4320" width="137" height="40" style="fill:green;stroke:black;stroke-width:1" /><text x="756" y="4330" font-size="8" style="fill:white">19</text><rect x="460" y="4420" width="200" height="40" style="fill:white;stroke:black;stroke-width:1" /><text x="470" y="4430" font-size="10" style="fill:blue">tramo</text><path d="M440 640 C460 640 440 4440 460 4440" style="fill:transparent;stroke:black" /><rect x="680" y="4420" width="200" height="40" style="fill:white;stroke:black;stroke-width:1" /><text x="690" y="4430" font-size="10" style="fill:blue">distancia</text><path d="M660 4440 C680 4440 660 4440 680 4440" style="fill:transparent;stroke:black" /><text x="690" y="4440" font-size="8" style="fill:black">valor: 0.42</text><text x="690" y="4450" font-size="8" style="fill:black">unidades: km</text><rect x="680" y="4470" width="200" height="40" style="fill:white;stroke:black;stroke-width:1" /><text x="690" y="4480" font-size="10" style="fill:blue">coordenadas</text><path d="M660 4440 C680 4440 660 4490 680 4490" style="fill:transparent;stroke:black" /><text x="690" y="4490" font-size="8" style="fill:black">longitud: -1.018622</text><text x="690" y="4500" font-size="8" style="fill:black">latitud: 52.063735</text><text x="690" y="4510" font-size="8" style="fill:black">altitud: 0.0</text><rect x="680" y="4520" width="200" height="40" style="fill:white;stroke:black;stroke-width:1" /><text x="690" y="4530" font-size="10" style="fill:blue">sector</text><path d="M660 4440 C680 4440 660 4540 680 4540" style="fill:transparent;stroke:black" /><rect x="746" y="4520" width="137" height="40" style="fill:green;stroke:black;stroke-width:1" /><text x="756" y="4530" font-size="8" style="fill:white">20</text><rect x="460" y="4620" width="200" height="40" style="fill:white;stroke:black;stroke-width:1" /><text x="470" y="4630" font-size="10" style="fill:blue">tramo</text><path d="M440 640 C460 640 440 4640 460 4640" style="fill:transparent;stroke:black" /><rect x="680" y="4620" width="200" height="40" style="fill:white;stroke:black;stroke-width:1" /><text x="690" y="4630" font-size="10" style="fill:blue">distancia</text><path d="M660 4640 C680 4640 660 4640 680 4640" style="fill:transparent;stroke:black" /><text x="690" y="4640" font-size="8" style="fill:black">valor: 0.21</text><text x="690" y="4650" font-size="8" style="fill:black">unidades: km</text><rect x="680" y="4670" width="200" height="40" style="fill:white;stroke:black;stroke-width:1" /><text x="690" y="4680" font-size="10" style="fill:blue">coordenadas</text><path d="M660 4640 C680 4640 660 4690 680 4690" style="fill:transparent;stroke:black" /><text x="690" y="4690" font-size="8" style="fill:black">longitud: -1.024290</text><text x="690" y="4700" font-size="8" style="fill:black">latitud: 52.065153</text><text x="690" y="4710" font-size="8" style="fill:black">altitud: 0.0</text><rect x="680" y="4720" width="200" height="40" style="fill:white;stroke:black;stroke-width:1" /><text x="690" y="4730" font-size="10" style="fill:blue">sector</text><path d="M660 4640 C680 4640 660 4740 680 4740" style="fill:transparent;stroke:black" /><rect x="746" y="4720" width="137" height="40" style="fill:green;stroke:black;stroke-width:1" /><text x="756" y="4730" font-size="8" style="fill:white">21</text><rect x="460" y="4820" width="200" height="40" style="fill:white;stroke:black;stroke-width:1" /><text x="470" y="4830" font-size="10" style="fill:blue">tramo</text><path d="M440 640 C460 640 440 4840 460 4840" style="fill:transparent;stroke:black" /><rect x="680" y="4820" width="200" height="40" style="fill:white;stroke:black;stroke-width:1" /><text x="690" y="4830" font-size="10" style="fill:blue">distancia</text><path d="M660 4840 C680 4840 660 4840 680 4840" style="fill:transparent;stroke:black" /><text x="690" y="4840" font-size="8" style="fill:black">valor: 0.07</text><text x="690" y="4850" font-size="8" style="fill:black">unidades: km</text><rect x="680" y="4870" width="200" height="40" style="fill:white;stroke:black;stroke-width:1" /><text x="690" y="4880" font-size="10" style="fill:blue">coordenadas</text><path d="M660 4840 C680 4840 660 4890 680 4890" style="fill:transparent;stroke:black" /><text x="690" y="4890" font-size="8" style="fill:black">longitud: -1.022142</text><text x="690" y="4900" font-size="8" style="fill:black">latitud: 52.066566</text><text x="690" y="4910" font-size="8" style="fill:black">altitud: 0.0</text><rect x="680" y="4920" width="200" height="40" style="fill:white;stroke:black;stroke-width:1" /><text x="690" y="4930" font-size="10" style="fill:blue">sector</text><path d="M660 4840 C680 4840 660 4940 680 4940" style="fill:transparent;stroke:black" /><rect x="746" y="4920" width="137" height="40" style="fill:green;stroke:black;stroke-width:1" /><text x="756" y="4930" font-size="8" style="fill:white">22</text><rect x="460" y="5020" width="200" height="40" style="fill:white;stroke:black;stroke-width:1" /><text x="470" y="5030" font-size="10" style="fill:blue">tramo</text><path d="M440 640 C460 640 440 5040 460 5040" style="fill:transparent;stroke:black" /><rect x="680" y="5020" width="200" height="40" style="fill:white;stroke:black;stroke-width:1" /><text x="690" y="5030" font-size="10" style="fill:blue">distancia</text><path d="M660 5040 C680 5040 660 5040 680 5040" style="fill:transparent;stroke:black" /><text x="690" y="5040" font-size="8" style="fill:black">valor: 0.13</text><text x="690" y="5050" font-size="8" style="fill:black">unidades: km</text><rect x="680" y="5070" width="200" height="40" style="fill:white;stroke:black;stroke-width:1" /><text x="690" y="5080" font-size="10" style="fill:blue">coordenadas</text><path d="M660 5040 C680 5040 660 5090 680 5090" style="fill:transparent;stroke:black" /><text x="690" y="5090" font-size="8" style="fill:black">longitud: -1.023011</text><text x="690" y="5100" font-size="8" style="fill:black">latitud: 52.066236</text><text x="690" y="5110" font-size="8" style="fill:black">altitud: 0.0</text><rect x="680" y="5120" width="200" height="40" style="fill:white;stroke:black;stroke-width:1" /><text x="690" y="5130" font-size="10" style="fill:blue">sector</text><path d="M660 5040 C680 5040 660 5140 680 5140" style="fill:transparent;stroke:black" /><rect x="746" y="5120" width="137" height="40" style="fill:green;stroke:black;stroke-width:1" /><text x="756" y="5130" font-size="8" style="fill:white">23</text><rect x="460" y="5220" width="200" height="40" style="fill:white;stroke:black;stroke-width:1" /><text x="470" y="5230" font-size="10" style="fill:blue">tramo</text><path d="M440 640 C460 640 440 5240 460 5240" style="fill:transparent;stroke:black" /><rect x="680" y="5220" width="200" height="40" style="fill:white;stroke:black;stroke-width:1" /><text x="690" y="5230" font-size="10" style="fill:blue">distancia</text><path d="M660 5240 C680 5240 660 5240 680 5240" style="fill:transparent;stroke:black" /><text x="690" y="5240" font-size="8" style="fill:black">valor: 0.27</text><text x="690" y="5250" font-size="8" style="fill:black">unidades: km</text><rect x="680" y="5270" width="200" height="40" style="fill:white;stroke:black;stroke-width:1" /><text x="690" y="5280" font-size="10" style="fill:blue">coordenadas</text><path d="M660 5240 C680 5240 660 5290 680 5290" style="fill:transparent;stroke:black" /><text x="690" y="5290" font-size="8" style="fill:black">longitud: -1.024293</text><text x="690" y="5300" font-size="8" style="fill:black">latitud: 52.067472</text><text x="690" y="5310" font-size="8" style="fill:black">altitud: 0.0</text><rect x="680" y="5320" width="200" height="40" style="fill:white;stroke:black;stroke-width:1" /><text x="690" y="5330" font-size="10" style="fill:blue">sector</text><path d="M660 5240 C680 5240 660 5340 680 5340" style="fill:transparent;stroke:black" /><rect x="746" y="5320" width="137" height="40" style="fill:green;stroke:black;stroke-width:1" /><text x="756" y="5330" font-size="8" style="fill:white">24</text></svg>