<?xml version="1.0" encoding="utf-8"?><svg width="auto" height="5270" style="overflow:visible " version="1.1" xmlns="http://www.w3.org/2000/svg"><rect x="20" y="20" width="200" height="40" style="fill:white;stroke:black;stroke-width:1" /><text x="30" y="30" font-size="10" style="fill:blue">xs:schema</text><text x="30" y="40" font-size="8" style="fill:black">xmlns: http://tempuri.org/circuito</text><text x="30" y="50" font-size="8" style="fill:black">elementFormDefault: qualified</text><text x="30" y="60" font-size="8" style="fill:black">targetNamespace: http://tempuri.org/circuito</text><text x="30" y="70" font-size="8" style="fill:black">xmlns:xs: http://www.w3.org/2001/XMLSchema</text><rect x="240" y="20" width="200" height="40" style="fill:white;stroke:black;stroke-width:1" /><text x="250" y="30" font-size="10" style="fill:blue">xs:element</text><path d="M220 40 C240 40 220 40 240 40" style="fill:transparent;stroke:black" /><text x="250" y="40" font-size="8" style="fill:black">name: circuito</text><rect x="460" y="20" width="200" height="40" style="fill:white;stroke:black;stroke-width:1" /><text x="470" y="30" font-size="10" style="fill:blue">xs:complexType</text><path d="M440 40 C460 40 440 40 460 40" style="fill:transparent;stroke:black" /><rect x="680" y="20" width="200" height="40" style="fill:white;stroke:black;stroke-width:1" /><text x="690" y="30" font-size="10" style="fill:blue">xs:sequence</text><path d="M660 40 C680 40 660 40 680 40" style="fill:transparent;stroke:black" /><rect x="900" y="20" width="200" height="40" style="fill:white;stroke:black;stroke-width:1" /><text x="910" y="30" font-size="10" style="fill:blue">xs:element</text><path d="M880 40 C900 40 880 40 900 40" style="fill:transparent;stroke:black" /><text x="910" y="40" font-size="8" style="fill:black">ref: longitud</text><rect x="900" y="70" width="200" height="40" style="fill:white;stroke:black;stroke-width:1" /><text x="910" y="80" font-size="10" style="fill:blue">xs:element</text><path d="M880 40 C900 40 880 90 900 90" style="fill:transparent;stroke:black" /><text x="910" y="90" font-size="8" style="fill:black">ref: bibliografía</text><rect x="900" y="120" width="200" height="40" style="fill:white;stroke:black;stroke-width:1" /><text x="910" y="130" font-size="10" style="fill:blue">xs:element</text><path d="M880 40 C900 40 880 140 900 140" style="fill:transparent;stroke:black" /><text x="910" y="140" font-size="8" style="fill:black">ref: galeríaFotos</text><rect x="900" y="170" width="200" height="40" style="fill:white;stroke:black;stroke-width:1" /><text x="910" y="180" font-size="10" style="fill:blue">xs:element</text><path d="M880 40 C900 40 880 190 900 190" style="fill:transparent;stroke:black" /><text x="910" y="190" font-size="8" style="fill:black">ref: galeríaVídeos</text><rect x="900" y="220" width="200" height="40" style="fill:white;stroke:black;stroke-width:1" /><text x="910" y="230" font-size="10" style="fill:blue">xs:element</text><path d="M880 40 C900 40 880 240 900 240" style="fill:transparent;stroke:black" /><text x="910" y="240" font-size="8" style="fill:black">ref: coordenadas</text><rect x="900" y="270" width="200" height="40" style="fill:white;stroke:black;stroke-width:1" /><text x="910" y="280" font-size="10" style="fill:blue">xs:element</text><path d="M880 40 C900 40 880 290 900 290" style="fill:transparent;stroke:black" /><text x="910" y="290" font-size="8" style="fill:black">ref: puntos</text><rect x="680" y="370" width="200" height="40" style="fill:white;stroke:black;stroke-width:1" /><text x="690" y="380" font-size="10" style="fill:blue">xs:attribute</text><path d="M660 40 C680 40 660 390 680 390" style="fill:transparent;stroke:black" /><text x="690" y="390" font-size="8" style="fill:black">name: nombre</text><text x="690" y="400" font-size="8" style="fill:black">use: required</text><rect x="900" y="370" width="200" height="40" style="fill:white;stroke:black;stroke-width:1" /><text x="910" y="380" font-size="10" style="fill:blue">xs:simpleType</text><path d="M880 390 C900 390 880 390 900 390" style="fill:transparent;stroke:black" /><rect x="1120" y="370" width="200" height="40" style="fill:white;stroke:black;stroke-width:1" /><text x="1130" y="380" font-size="10" style="fill:blue">xs:restriction</text><path d="M1100 390 C1120 390 1100 390 1120 390" style="fill:transparent;stroke:black" /><text x="1130" y="390" font-size="8" style="fill:black">base: xs:string</text><rect x="1340" y="370" width="200" height="40" style="fill:white;stroke:black;stroke-width:1" /><text x="1350" y="380" font-size="10" style="fill:blue">xs:pattern</text><path d="M1320 390 C1340 390 1320 390 1340 390" style="fill:transparent;stroke:black" /><text x="1350" y="390" font-size="8" style="fill:black">value: [a-zA-Z]+</text><rect x="680" y="570" width="200" height="40" style="fill:white;stroke:black;stroke-width:1" /><text x="690" y="580" font-size="10" style="fill:blue">xs:attribute</text><path d="M660 40 C680 40 660 590 680 590" style="fill:transparent;stroke:black" /><text x="690" y="590" font-size="8" style="fill:black">name: anchura</text><text x="690" y="600" font-size="8" style="fill:black">use: required</text><rect x="900" y="570" width="200" height="40" style="fill:white;stroke:black;stroke-width:1" /><text x="910" y="580" font-size="10" style="fill:blue">xs:simpleType</text><path d="M880 590 C900 590 880 590 900 590" style="fill:transparent;stroke:black" /><rect x="1120" y="570" width="200" height="40" style="fill:white;stroke:black;stroke-width:1" /><text x="1130" y="580" font-size="10" style="fill:blue">xs:restriction</text><path d="M1100 590 C1120 590 1100 590 1120 590" style="fill:transparent;stroke:black" /><text x="1130" y="590" font-size="8" style="fill:black">base: xs:float</text><rect x="1340" y="570" width="200" height="40" style="fill:white;stroke:black;stroke-width:1" /><text x="1350" y="580" font-size="10" style="fill:blue">xs:minExclusive</text><path d="M1320 590 C1340 590 1320 590 1340 590" style="fill:transparent;stroke:black" /><text x="1350" y="590" font-size="8" style="fill:black">value: 0</text><rect x="680" y="770" width="200" height="40" style="fill:white;stroke:black;stroke-width:1" /><text x="690" y="780" font-size="10" style="fill:blue">xs:attribute</text><path d="M660 40 C680 40 660 790 680 790" style="fill:transparent;stroke:black" /><text x="690" y="790" font-size="8" style="fill:black">name: fecha2024</text><text x="690" y="800" font-size="8" style="fill:black">type: xs:date</text><text x="690" y="810" font-size="8" style="fill:black">use: required</text><rect x="680" y="820" width="200" height="40" style="fill:white;stroke:black;stroke-width:1" /><text x="690" y="830" font-size="10" style="fill:blue">xs:attribute</text><path d="M660 40 C680 40 660 840 680 840" style="fill:transparent;stroke:black" /><text x="690" y="840" font-size="8" style="fill:black">name: horaInicio</text><text x="690" y="850" font-size="8" style="fill:black">type: xs:time</text><text x="690" y="860" font-size="8" style="fill:black">use: required</text><rect x="680" y="870" width="200" height="40" style="fill:white;stroke:black;stroke-width:1" /><text x="690" y="880" font-size="10" style="fill:blue">xs:attribute</text><path d="M660 40 C680 40 660 890 680 890" style="fill:transparent;stroke:black" /><text x="690" y="890" font-size="8" style="fill:black">name: nVueltas</text><text x="690" y="900" font-size="8" style="fill:black">use: required</text><rect x="900" y="870" width="200" height="40" style="fill:white;stroke:black;stroke-width:1" /><text x="910" y="880" font-size="10" style="fill:blue">xs:simpleType</text><path d="M880 890 C900 890 880 890 900 890" style="fill:transparent;stroke:black" /><rect x="1120" y="870" width="200" height="40" style="fill:white;stroke:black;stroke-width:1" /><text x="1130" y="880" font-size="10" style="fill:blue">xs:restriction</text><path d="M1100 890 C1120 890 1100 890 1120 890" style="fill:transparent;stroke:black" /><text x="1130" y="890" font-size="8" style="fill:black">base: xs:integer</text><rect x="1340" y="870" width="200" height="40" style="fill:white;stroke:black;stroke-width:1" /><text x="1350" y="880" font-size="10" style="fill:blue">xs:minExclusive</text><path d="M1320 890 C1340 890 1320 890 1340 890" style="fill:transparent;stroke:black" /><text x="1350" y="890" font-size="8" style="fill:black">value: 0</text><rect x="680" y="1070" width="200" height="40" style="fill:white;stroke:black;stroke-width:1" /><text x="690" y="1080" font-size="10" style="fill:blue">xs:attribute</text><path d="M660 40 C680 40 660 1090 680 1090" style="fill:transparent;stroke:black" /><text x="690" y="1090" font-size="8" style="fill:black">name: localidad</text><text x="690" y="1100" font-size="8" style="fill:black">use: required</text><rect x="900" y="1070" width="200" height="40" style="fill:white;stroke:black;stroke-width:1" /><text x="910" y="1080" font-size="10" style="fill:blue">xs:simpleType</text><path d="M880 1090 C900 1090 880 1090 900 1090" style="fill:transparent;stroke:black" /><rect x="1120" y="1070" width="200" height="40" style="fill:white;stroke:black;stroke-width:1" /><text x="1130" y="1080" font-size="10" style="fill:blue">xs:restriction</text><path d="M1100 1090 C1120 1090 1100 1090 1120 1090" style="fill:transparent;stroke:black" /><text x="1130" y="1090" font-size="8" style="fill:black">base: xs:string</text><rect x="1340" y="1070" width="200" height="40" style="fill:white;stroke:black;stroke-width:1" /><text x="1350" y="1080" font-size="10" style="fill:blue">xs:pattern</text><path d="M1320 1090 C1340 1090 1320 1090 1340 1090" style="fill:transparent;stroke:black" /><text x="1350" y="1090" font-size="8" style="fill:black">value: [a-zA-Z]+</text><rect x="680" y="1270" width="200" height="40" style="fill:white;stroke:black;stroke-width:1" /><text x="690" y="1280" font-size="10" style="fill:blue">xs:attribute</text><path d="M660 40 C680 40 660 1290 680 1290" style="fill:transparent;stroke:black" /><text x="690" y="1290" font-size="8" style="fill:black">name: país</text><text x="690" y="1300" font-size="8" style="fill:black">use: required</text><rect x="900" y="1270" width="200" height="40" style="fill:white;stroke:black;stroke-width:1" /><text x="910" y="1280" font-size="10" style="fill:blue">xs:simpleType</text><path d="M880 1290 C900 1290 880 1290 900 1290" style="fill:transparent;stroke:black" /><rect x="1120" y="1270" width="200" height="40" style="fill:white;stroke:black;stroke-width:1" /><text x="1130" y="1280" font-size="10" style="fill:blue">xs:restriction</text><path d="M1100 1290 C1120 1290 1100 1290 1120 1290" style="fill:transparent;stroke:black" /><text x="1130" y="1290" font-size="8" style="fill:black">base: xs:string</text><rect x="1340" y="1270" width="200" height="40" style="fill:white;stroke:black;stroke-width:1" /><text x="1350" y="1280" font-size="10" style="fill:blue">xs:pattern</text><path d="M1320 1290 C1340 1290 1320 1290 1340 1290" style="fill:transparent;stroke:black" /><text x="1350" y="1290" font-size="8" style="fill:black">value: [a-zA-Z]+</text><rect x="240" y="1570" width="200" height="40" style="fill:white;stroke:black;stroke-width:1" /><text x="250" y="1580" font-size="10" style="fill:blue">xs:element</text><path d="M220 40 C240 40 220 1590 240 1590" style="fill:transparent;stroke:black" /><text x="250" y="1590" font-size="8" style="fill:black">name: longitud</text><rect x="460" y="1570" width="200" height="40" style="fill:white;stroke:black;stroke-width:1" /><text x="470" y="1580" font-size="10" style="fill:blue">xs:complexType</text><path d="M440 1590 C460 1590 440 1590 460 1590" style="fill:transparent;stroke:black" /><rect x="680" y="1570" width="200" height="40" style="fill:white;stroke:black;stroke-width:1" /><text x="690" y="1580" font-size="10" style="fill:blue">xs:simpleContent</text><path d="M660 1590 C680 1590 660 1590 680 1590" style="fill:transparent;stroke:black" /><rect x="900" y="1570" width="200" height="40" style="fill:white;stroke:black;stroke-width:1" /><text x="910" y="1580" font-size="10" style="fill:blue">xs:extension</text><path d="M880 1590 C900 1590 880 1590 900 1590" style="fill:transparent;stroke:black" /><text x="910" y="1590" font-size="8" style="fill:black">base: xs:string</text><rect x="1120" y="1570" width="200" height="40" style="fill:white;stroke:black;stroke-width:1" /><text x="1130" y="1580" font-size="10" style="fill:blue">xs:attribute</text><path d="M1100 1590 C1120 1590 1100 1590 1120 1590" style="fill:transparent;stroke:black" /><text x="1130" y="1590" font-size="8" style="fill:black">name: valor</text><text x="1130" y="1600" font-size="8" style="fill:black">use: required</text><rect x="1340" y="1570" width="200" height="40" style="fill:white;stroke:black;stroke-width:1" /><text x="1350" y="1580" font-size="10" style="fill:blue">xs:simpleType</text><path d="M1320 1590 C1340 1590 1320 1590 1340 1590" style="fill:transparent;stroke:black" /><rect x="1560" y="1570" width="200" height="40" style="fill:white;stroke:black;stroke-width:1" /><text x="1570" y="1580" font-size="10" style="fill:blue">xs:restriction</text><path d="M1540 1590 C1560 1590 1540 1590 1560 1590" style="fill:transparent;stroke:black" /><text x="1570" y="1590" font-size="8" style="fill:black">base: xs:float</text><rect x="1780" y="1570" width="200" height="40" style="fill:white;stroke:black;stroke-width:1" /><text x="1790" y="1580" font-size="10" style="fill:blue">xs:minExclusive</text><path d="M1760 1590 C1780 1590 1760 1590 1780 1590" style="fill:transparent;stroke:black" /><text x="1790" y="1590" font-size="8" style="fill:black">value: 0</text><rect x="1120" y="1770" width="200" height="40" style="fill:white;stroke:black;stroke-width:1" /><text x="1130" y="1780" font-size="10" style="fill:blue">xs:attribute</text><path d="M1100 1590 C1120 1590 1100 1790 1120 1790" style="fill:transparent;stroke:black" /><text x="1130" y="1790" font-size="8" style="fill:black">name: unidades</text><text x="1130" y="1800" font-size="8" style="fill:black">use: required</text><rect x="1340" y="1770" width="200" height="40" style="fill:white;stroke:black;stroke-width:1" /><text x="1350" y="1780" font-size="10" style="fill:blue">xs:simpleType</text><path d="M1320 1790 C1340 1790 1320 1790 1340 1790" style="fill:transparent;stroke:black" /><rect x="1560" y="1770" width="200" height="40" style="fill:white;stroke:black;stroke-width:1" /><text x="1570" y="1780" font-size="10" style="fill:blue">xs:restriction</text><path d="M1540 1790 C1560 1790 1540 1790 1560 1790" style="fill:transparent;stroke:black" /><text x="1570" y="1790" font-size="8" style="fill:black">base: xs:string</text><rect x="1780" y="1770" width="200" height="40" style="fill:white;stroke:black;stroke-width:1" /><text x="1790" y="1780" font-size="10" style="fill:blue">xs:pattern</text><path d="M1760 1790 C1780 1790 1760 1790 1780 1790" style="fill:transparent;stroke:black" /><text x="1790" y="1790" font-size="8" style="fill:black">value: m|km</text><rect x="240" y="2170" width="200" height="40" style="fill:white;stroke:black;stroke-width:1" /><text x="250" y="2180" font-size="10" style="fill:blue">xs:element</text><path d="M220 40 C240 40 220 2190 240 2190" style="fill:transparent;stroke:black" /><text x="250" y="2190" font-size="8" style="fill:black">name: bibliografía</text><rect x="460" y="2170" width="200" height="40" style="fill:white;stroke:black;stroke-width:1" /><text x="470" y="2180" font-size="10" style="fill:blue">xs:complexType</text><path d="M440 2190 C460 2190 440 2190 460 2190" style="fill:transparent;stroke:black" /><rect x="680" y="2170" width="200" height="40" style="fill:white;stroke:black;stroke-width:1" /><text x="690" y="2180" font-size="10" style="fill:blue">xs:sequence</text><path d="M660 2190 C680 2190 660 2190 680 2190" style="fill:transparent;stroke:black" /><rect x="900" y="2170" width="200" height="40" style="fill:white;stroke:black;stroke-width:1" /><text x="910" y="2180" font-size="10" style="fill:blue">xs:element</text><path d="M880 2190 C900 2190 880 2190 900 2190" style="fill:transparent;stroke:black" /><text x="910" y="2190" font-size="8" style="fill:black">minOccurs: 3</text><text x="910" y="2200" font-size="8" style="fill:black">maxOccurs: unbounded</text><text x="910" y="2210" font-size="8" style="fill:black">ref: referencia</text><rect x="240" y="2370" width="200" height="40" style="fill:white;stroke:black;stroke-width:1" /><text x="250" y="2380" font-size="10" style="fill:blue">xs:element</text><path d="M220 40 C240 40 220 2390 240 2390" style="fill:transparent;stroke:black" /><text x="250" y="2390" font-size="8" style="fill:black">name: referencia</text><rect x="460" y="2370" width="200" height="40" style="fill:white;stroke:black;stroke-width:1" /><text x="470" y="2380" font-size="10" style="fill:blue">xs:complexType</text><path d="M440 2390 C460 2390 440 2390 460 2390" style="fill:transparent;stroke:black" /><rect x="680" y="2370" width="200" height="40" style="fill:white;stroke:black;stroke-width:1" /><text x="690" y="2380" font-size="10" style="fill:blue">xs:simpleContent</text><path d="M660 2390 C680 2390 660 2390 680 2390" style="fill:transparent;stroke:black" /><rect x="900" y="2370" width="200" height="40" style="fill:white;stroke:black;stroke-width:1" /><text x="910" y="2380" font-size="10" style="fill:blue">xs:extension</text><path d="M880 2390 C900 2390 880 2390 900 2390" style="fill:transparent;stroke:black" /><text x="910" y="2390" font-size="8" style="fill:black">base: xs:string</text><rect x="1120" y="2370" width="200" height="40" style="fill:white;stroke:black;stroke-width:1" /><text x="1130" y="2380" font-size="10" style="fill:blue">xs:attribute</text><path d="M1100 2390 C1120 2390 1100 2390 1120 2390" style="fill:transparent;stroke:black" /><text x="1130" y="2390" font-size="8" style="fill:black">name: enlace</text><text x="1130" y="2400" font-size="8" style="fill:black">type: xs:string</text><text x="1130" y="2410" font-size="8" style="fill:black">use: required</text><rect x="240" y="2620" width="200" height="40" style="fill:white;stroke:black;stroke-width:1" /><text x="250" y="2630" font-size="10" style="fill:blue">xs:element</text><path d="M220 40 C240 40 220 2640 240 2640" style="fill:transparent;stroke:black" /><text x="250" y="2640" font-size="8" style="fill:black">name: galeríaFotos</text><rect x="460" y="2620" width="200" height="40" style="fill:white;stroke:black;stroke-width:1" /><text x="470" y="2630" font-size="10" style="fill:blue">xs:complexType</text><path d="M440 2640 C460 2640 440 2640 460 2640" style="fill:transparent;stroke:black" /><rect x="680" y="2620" width="200" height="40" style="fill:white;stroke:black;stroke-width:1" /><text x="690" y="2630" font-size="10" style="fill:blue">xs:sequence</text><path d="M660 2640 C680 2640 660 2640 680 2640" style="fill:transparent;stroke:black" /><rect x="900" y="2620" width="200" height="40" style="fill:white;stroke:black;stroke-width:1" /><text x="910" y="2630" font-size="10" style="fill:blue">xs:element</text><path d="M880 2640 C900 2640 880 2640 900 2640" style="fill:transparent;stroke:black" /><text x="910" y="2640" font-size="8" style="fill:black">minOccurs: 1</text><text x="910" y="2650" font-size="8" style="fill:black">maxOccurs: 5</text><text x="910" y="2660" font-size="8" style="fill:black">ref: foto</text><rect x="240" y="2820" width="200" height="40" style="fill:white;stroke:black;stroke-width:1" /><text x="250" y="2830" font-size="10" style="fill:blue">xs:element</text><path d="M220 40 C240 40 220 2840 240 2840" style="fill:transparent;stroke:black" /><text x="250" y="2840" font-size="8" style="fill:black">name: foto</text><rect x="460" y="2820" width="200" height="40" style="fill:white;stroke:black;stroke-width:1" /><text x="470" y="2830" font-size="10" style="fill:blue">xs:complexType</text><path d="M440 2840 C460 2840 440 2840 460 2840" style="fill:transparent;stroke:black" /><rect x="680" y="2820" width="200" height="40" style="fill:white;stroke:black;stroke-width:1" /><text x="690" y="2830" font-size="10" style="fill:blue">xs:simpleContent</text><path d="M660 2840 C680 2840 660 2840 680 2840" style="fill:transparent;stroke:black" /><rect x="900" y="2820" width="200" height="40" style="fill:white;stroke:black;stroke-width:1" /><text x="910" y="2830" font-size="10" style="fill:blue">xs:extension</text><path d="M880 2840 C900 2840 880 2840 900 2840" style="fill:transparent;stroke:black" /><text x="910" y="2840" font-size="8" style="fill:black">base: xs:string</text><rect x="1120" y="2820" width="200" height="40" style="fill:white;stroke:black;stroke-width:1" /><text x="1130" y="2830" font-size="10" style="fill:blue">xs:attribute</text><path d="M1100 2840 C1120 2840 1100 2840 1120 2840" style="fill:transparent;stroke:black" /><text x="1130" y="2840" font-size="8" style="fill:black">name: enlace</text><text x="1130" y="2850" font-size="8" style="fill:black">type: xs:string</text><text x="1130" y="2860" font-size="8" style="fill:black">use: required</text><rect x="240" y="3070" width="200" height="40" style="fill:white;stroke:black;stroke-width:1" /><text x="250" y="3080" font-size="10" style="fill:blue">xs:element</text><path d="M220 40 C240 40 220 3090 240 3090" style="fill:transparent;stroke:black" /><text x="250" y="3090" font-size="8" style="fill:black">name: galeríaVídeos</text><rect x="460" y="3070" width="200" height="40" style="fill:white;stroke:black;stroke-width:1" /><text x="470" y="3080" font-size="10" style="fill:blue">xs:complexType</text><path d="M440 3090 C460 3090 440 3090 460 3090" style="fill:transparent;stroke:black" /><rect x="680" y="3070" width="200" height="40" style="fill:white;stroke:black;stroke-width:1" /><text x="690" y="3080" font-size="10" style="fill:blue">xs:sequence</text><path d="M660 3090 C680 3090 660 3090 680 3090" style="fill:transparent;stroke:black" /><rect x="900" y="3070" width="200" height="40" style="fill:white;stroke:black;stroke-width:1" /><text x="910" y="3080" font-size="10" style="fill:blue">xs:element</text><path d="M880 3090 C900 3090 880 3090 900 3090" style="fill:transparent;stroke:black" /><text x="910" y="3090" font-size="8" style="fill:black">minOccurs: 0</text><text x="910" y="3100" font-size="8" style="fill:black">maxOccurs: 3</text><text x="910" y="3110" font-size="8" style="fill:black">ref: vídeo</text><rect x="240" y="3270" width="200" height="40" style="fill:white;stroke:black;stroke-width:1" /><text x="250" y="3280" font-size="10" style="fill:blue">xs:element</text><path d="M220 40 C240 40 220 3290 240 3290" style="fill:transparent;stroke:black" /><text x="250" y="3290" font-size="8" style="fill:black">name: vídeo</text><rect x="460" y="3270" width="200" height="40" style="fill:white;stroke:black;stroke-width:1" /><text x="470" y="3280" font-size="10" style="fill:blue">xs:complexType</text><path d="M440 3290 C460 3290 440 3290 460 3290" style="fill:transparent;stroke:black" /><rect x="680" y="3270" width="200" height="40" style="fill:white;stroke:black;stroke-width:1" /><text x="690" y="3280" font-size="10" style="fill:blue">xs:simpleContent</text><path d="M660 3290 C680 3290 660 3290 680 3290" style="fill:transparent;stroke:black" /><rect x="900" y="3270" width="200" height="40" style="fill:white;stroke:black;stroke-width:1" /><text x="910" y="3280" font-size="10" style="fill:blue">xs:extension</text><path d="M880 3290 C900 3290 880 3290 900 3290" style="fill:transparent;stroke:black" /><text x="910" y="3290" font-size="8" style="fill:black">base: xs:string</text><rect x="1120" y="3270" width="200" height="40" style="fill:white;stroke:black;stroke-width:1" /><text x="1130" y="3280" font-size="10" style="fill:blue">xs:attribute</text><path d="M1100 3290 C1120 3290 1100 3290 1120 3290" style="fill:transparent;stroke:black" /><text x="1130" y="3290" font-size="8" style="fill:black">name: enlace</text><text x="1130" y="3300" font-size="8" style="fill:black">type: xs:string</text><text x="1130" y="3310" font-size="8" style="fill:black">use: required</text><rect x="240" y="3520" width="200" height="40" style="fill:white;stroke:black;stroke-width:1" /><text x="250" y="3530" font-size="10" style="fill:blue">xs:element</text><path d="M220 40 C240 40 220 3540 240 3540" style="fill:transparent;stroke:black" /><text x="250" y="3540" font-size="8" style="fill:black">name: coordenadas</text><rect x="460" y="3520" width="200" height="40" style="fill:white;stroke:black;stroke-width:1" /><text x="470" y="3530" font-size="10" style="fill:blue">xs:complexType</text><path d="M440 3540 C460 3540 440 3540 460 3540" style="fill:transparent;stroke:black" /><rect x="680" y="3520" width="200" height="40" style="fill:white;stroke:black;stroke-width:1" /><text x="690" y="3530" font-size="10" style="fill:blue">xs:simpleContent</text><path d="M660 3540 C680 3540 660 3540 680 3540" style="fill:transparent;stroke:black" /><rect x="900" y="3520" width="200" height="40" style="fill:white;stroke:black;stroke-width:1" /><text x="910" y="3530" font-size="10" style="fill:blue">xs:extension</text><path d="M880 3540 C900 3540 880 3540 900 3540" style="fill:transparent;stroke:black" /><text x="910" y="3540" font-size="8" style="fill:black">base: xs:string</text><rect x="1120" y="3520" width="200" height="40" style="fill:white;stroke:black;stroke-width:1" /><text x="1130" y="3530" font-size="10" style="fill:blue">xs:attribute</text><path d="M1100 3540 C1120 3540 1100 3540 1120 3540" style="fill:transparent;stroke:black" /><text x="1130" y="3540" font-size="8" style="fill:black">name: longitud</text><text x="1130" y="3550" font-size="8" style="fill:black">type: xs:float</text><text x="1130" y="3560" font-size="8" style="fill:black">use: required</text><rect x="1120" y="3570" width="200" height="40" style="fill:white;stroke:black;stroke-width:1" /><text x="1130" y="3580" font-size="10" style="fill:blue">xs:attribute</text><path d="M1100 3540 C1120 3540 1100 3590 1120 3590" style="fill:transparent;stroke:black" /><text x="1130" y="3590" font-size="8" style="fill:black">name: latitud</text><text x="1130" y="3600" font-size="8" style="fill:black">type: xs:float</text><text x="1130" y="3610" font-size="8" style="fill:black">use: required</text><rect x="1120" y="3620" width="200" height="40" style="fill:white;stroke:black;stroke-width:1" /><text x="1130" y="3630" font-size="10" style="fill:blue">xs:attribute</text><path d="M1100 3540 C1120 3540 1100 3640 1120 3640" style="fill:transparent;stroke:black" /><text x="1130" y="3640" font-size="8" style="fill:black">name: altitud</text><text x="1130" y="3650" font-size="8" style="fill:black">type: xs:float</text><text x="1130" y="3660" font-size="8" style="fill:black">use: required</text><rect x="240" y="3870" width="200" height="40" style="fill:white;stroke:black;stroke-width:1" /><text x="250" y="3880" font-size="10" style="fill:blue">xs:element</text><path d="M220 40 C240 40 220 3890 240 3890" style="fill:transparent;stroke:black" /><text x="250" y="3890" font-size="8" style="fill:black">name: puntos</text><rect x="460" y="3870" width="200" height="40" style="fill:white;stroke:black;stroke-width:1" /><text x="470" y="3880" font-size="10" style="fill:blue">xs:complexType</text><path d="M440 3890 C460 3890 440 3890 460 3890" style="fill:transparent;stroke:black" /><rect x="680" y="3870" width="200" height="40" style="fill:white;stroke:black;stroke-width:1" /><text x="690" y="3880" font-size="10" style="fill:blue">xs:sequence</text><path d="M660 3890 C680 3890 660 3890 680 3890" style="fill:transparent;stroke:black" /><rect x="900" y="3870" width="200" height="40" style="fill:white;stroke:black;stroke-width:1" /><text x="910" y="3880" font-size="10" style="fill:blue">xs:element</text><path d="M880 3890 C900 3890 880 3890 900 3890" style="fill:transparent;stroke:black" /><text x="910" y="3890" font-size="8" style="fill:black">minOccurs: 3</text><text x="910" y="3900" font-size="8" style="fill:black">maxOccurs: unbounded</text><text x="910" y="3910" font-size="8" style="fill:black">ref: tramo</text><rect x="240" y="4070" width="200" height="40" style="fill:white;stroke:black;stroke-width:1" /><text x="250" y="4080" font-size="10" style="fill:blue">xs:element</text><path d="M220 40 C240 40 220 4090 240 4090" style="fill:transparent;stroke:black" /><text x="250" y="4090" font-size="8" style="fill:black">name: tramo</text><rect x="460" y="4070" width="200" height="40" style="fill:white;stroke:black;stroke-width:1" /><text x="470" y="4080" font-size="10" style="fill:blue">xs:complexType</text><path d="M440 4090 C460 4090 440 4090 460 4090" style="fill:transparent;stroke:black" /><rect x="680" y="4070" width="200" height="40" style="fill:white;stroke:black;stroke-width:1" /><text x="690" y="4080" font-size="10" style="fill:blue">xs:sequence</text><path d="M660 4090 C680 4090 660 4090 680 4090" style="fill:transparent;stroke:black" /><rect x="900" y="4070" width="200" height="40" style="fill:white;stroke:black;stroke-width:1" /><text x="910" y="4080" font-size="10" style="fill:blue">xs:element</text><path d="M880 4090 C900 4090 880 4090 900 4090" style="fill:transparent;stroke:black" /><text x="910" y="4090" font-size="8" style="fill:black">ref: distancia</text><rect x="900" y="4120" width="200" height="40" style="fill:white;stroke:black;stroke-width:1" /><text x="910" y="4130" font-size="10" style="fill:blue">xs:element</text><path d="M880 4090 C900 4090 880 4140 900 4140" style="fill:transparent;stroke:black" /><text x="910" y="4140" font-size="8" style="fill:black">ref: coordenadas</text><rect x="900" y="4170" width="200" height="40" style="fill:white;stroke:black;stroke-width:1" /><text x="910" y="4180" font-size="10" style="fill:blue">xs:element</text><path d="M880 4090 C900 4090 880 4190 900 4190" style="fill:transparent;stroke:black" /><text x="910" y="4190" font-size="8" style="fill:black">ref: sector</text><rect x="240" y="4370" width="200" height="40" style="fill:white;stroke:black;stroke-width:1" /><text x="250" y="4380" font-size="10" style="fill:blue">xs:element</text><path d="M220 40 C240 40 220 4390 240 4390" style="fill:transparent;stroke:black" /><text x="250" y="4390" font-size="8" style="fill:black">name: distancia</text><rect x="460" y="4370" width="200" height="40" style="fill:white;stroke:black;stroke-width:1" /><text x="470" y="4380" font-size="10" style="fill:blue">xs:complexType</text><path d="M440 4390 C460 4390 440 4390 460 4390" style="fill:transparent;stroke:black" /><rect x="680" y="4370" width="200" height="40" style="fill:white;stroke:black;stroke-width:1" /><text x="690" y="4380" font-size="10" style="fill:blue">xs:simpleContent</text><path d="M660 4390 C680 4390 660 4390 680 4390" style="fill:transparent;stroke:black" /><rect x="900" y="4370" width="200" height="40" style="fill:white;stroke:black;stroke-width:1" /><text x="910" y="4380" font-size="10" style="fill:blue">xs:extension</text><path d="M880 4390 C900 4390 880 4390 900 4390" style="fill:transparent;stroke:black" /><text x="910" y="4390" font-size="8" style="fill:black">base: xs:string</text><rect x="1120" y="4370" width="200" height="40" style="fill:white;stroke:black;stroke-width:1" /><text x="1130" y="4380" font-size="10" style="fill:blue">xs:attribute</text><path d="M1100 4390 C1120 4390 1100 4390 1120 4390" style="fill:transparent;stroke:black" /><text x="1130" y="4390" font-size="8" style="fill:black">name: valor</text><text x="1130" y="4400" font-size="8" style="fill:black">use: required</text><rect x="1340" y="4370" width="200" height="40" style="fill:white;stroke:black;stroke-width:1" /><text x="1350" y="4380" font-size="10" style="fill:blue">xs:simpleType</text><path d="M1320 4390 C1340 4390 1320 4390 1340 4390" style="fill:transparent;stroke:black" /><rect x="1560" y="4370" width="200" height="40" style="fill:white;stroke:black;stroke-width:1" /><text x="1570" y="4380" font-size="10" style="fill:blue">xs:restriction</text><path d="M1540 4390 C1560 4390 1540 4390 1560 4390" style="fill:transparent;stroke:black" /><text x="1570" y="4390" font-size="8" style="fill:black">base: xs:float</text><rect x="1780" y="4370" width="200" height="40" style="fill:white;stroke:black;stroke-width:1" /><text x="1790" y="4380" font-size="10" style="fill:blue">xs:minExclusive</text><path d="M1760 4390 C1780 4390 1760 4390 1780 4390" style="fill:transparent;stroke:black" /><text x="1790" y="4390" font-size="8" style="fill:black">value: 0</text><rect x="1120" y="4570" width="200" height="40" style="fill:white;stroke:black;stroke-width:1" /><text x="1130" y="4580" font-size="10" style="fill:blue">xs:attribute</text><path d="M1100 4390 C1120 4390 1100 4590 1120 4590" style="fill:transparent;stroke:black" /><text x="1130" y="4590" font-size="8" style="fill:black">name: unidades</text><text x="1130" y="4600" font-size="8" style="fill:black">use: required</text><rect x="1340" y="4570" width="200" height="40" style="fill:white;stroke:black;stroke-width:1" /><text x="1350" y="4580" font-size="10" style="fill:blue">xs:simpleType</text><path d="M1320 4590 C1340 4590 1320 4590 1340 4590" style="fill:transparent;stroke:black" /><rect x="1560" y="4570" width="200" height="40" style="fill:white;stroke:black;stroke-width:1" /><text x="1570" y="4580" font-size="10" style="fill:blue">xs:restriction</text><path d="M1540 4590 C1560 4590 1540 4590 1560 4590" style="fill:transparent;stroke:black" /><text x="1570" y="4590" font-size="8" style="fill:black">base: xs:string</text><rect x="1780" y="4570" width="200" height="40" style="fill:white;stroke:black;stroke-width:1" /><text x="1790" y="4580" font-size="10" style="fill:blue">xs:pattern</text><path d="M1760 4590 C1780 4590 1760 4590 1780 4590" style="fill:transparent;stroke:black" /><text x="1790" y="4590" font-size="8" style="fill:black">value: m|km</text><rect x="240" y="4970" width="200" height="40" style="fill:white;stroke:black;stroke-width:1" /><text x="250" y="4980" font-size="10" style="fill:blue">xs:element</text><path d="M220 40 C240 40 220 4990 240 4990" style="fill:transparent;stroke:black" /><text x="250" y="4990" font-size="8" style="fill:black">name: sector</text><rect x="460" y="4970" width="200" height="40" style="fill:white;stroke:black;stroke-width:1" /><text x="470" y="4980" font-size="10" style="fill:blue">xs:simpleType</text><path d="M440 4990 C460 4990 440 4990 460 4990" style="fill:transparent;stroke:black" /><rect x="680" y="4970" width="200" height="40" style="fill:white;stroke:black;stroke-width:1" /><text x="690" y="4980" font-size="10" style="fill:blue">xs:restriction</text><path d="M660 4990 C680 4990 660 4990 680 4990" style="fill:transparent;stroke:black" /><text x="690" y="4990" font-size="8" style="fill:black">base: xs:integer</text><rect x="900" y="4970" width="200" height="40" style="fill:white;stroke:black;stroke-width:1" /><text x="910" y="4980" font-size="10" style="fill:blue">xs:minInclusive</text><path d="M880 4990 C900 4990 880 4990 900 4990" style="fill:transparent;stroke:black" /><text x="910" y="4990" font-size="8" style="fill:black">value: 1</text><rect x="900" y="5020" width="200" height="40" style="fill:white;stroke:black;stroke-width:1" /><text x="910" y="5030" font-size="10" style="fill:blue">xs:maxInclusive</text><path d="M880 4990 C900 4990 880 5040 900 5040" style="fill:transparent;stroke:black" /><text x="910" y="5040" font-size="8" style="fill:black">value: 20</text></svg>