<svg xmlns="http://www.w3.org/2000/svg" width="800" height="600">
<circle cx="397.571" cy="293.2502999999997" r="5" fill="blue" />
<circle cx="398.05060000000003" cy="292.8716999999999" r="5" fill="blue" />
<circle cx="398.3445" cy="292.8756999999997" r="5" fill="blue" />
<circle cx="398.6632" cy="292.74640000000005" r="5" fill="blue" />
<circle cx="398.8521" cy="292.68939999999975" r="5" fill="blue" />
<circle cx="398.122" cy="292.28710000000007" r="5" fill="blue" />
<circle cx="397.9997" cy="292.30820000000006" r="5" fill="blue" />
<circle cx="397.96320000000003" cy="292.4070999999998" r="5" fill="blue" />
<circle cx="397.8859" cy="292.4163999999997" r="5" fill="blue" />
<circle cx="397.8259" cy="292.3727999999997" r="5" fill="blue" />
<circle cx="398.00399999999996" cy="292.1816" r="5" fill="blue" />
<circle cx="398.1413" cy="292.14210000000026" r="5" fill="blue" />
<circle cx="398.83439999999996" cy="292.11570000000006" r="5" fill="blue" />
<circle cx="398.9861" cy="292.57619999999986" r="5" fill="blue" />
<circle cx="399.0501" cy="292.65899999999976" r="5" fill="blue" />
<circle cx="398.9954" cy="292.79510000000005" r="5" fill="blue" />
<circle cx="399.07250000000005" cy="292.8997000000003" r="5" fill="blue" />
<circle cx="398.908" cy="293.00059999999985" r="5" fill="blue" />
<circle cx="398.3036" cy="293.63349999999997" r="5" fill="blue" />
<circle cx="398.1378" cy="293.62649999999985" r="5" fill="blue" />
<circle cx="397.571" cy="293.48469999999975" r="5" fill="blue" />
<circle cx="397.7827" cy="293.3449000000003" r="5" fill="blue" />
<circle cx="397.692" cy="293.3771999999998" r="5" fill="blue" />
<circle cx="397.5767" cy="293.2403999999998" r="5" fill="blue" />
<line x1="397.571" y1="293.2502999999997" x2="398.05060000000003" y2="292.8716999999999" stroke="black" stroke-width="2" />
<line x1="398.05060000000003" y1="292.8716999999999" x2="398.3445" y2="292.8756999999997" stroke="black" stroke-width="2" />
<line x1="398.3445" y1="292.8756999999997" x2="398.6632" y2="292.74640000000005" stroke="black" stroke-width="2" />
<line x1="398.6632" y1="292.74640000000005" x2="398.8521" y2="292.68939999999975" stroke="black" stroke-width="2" />
<line x1="398.8521" y1="292.68939999999975" x2="398.122" y2="292.28710000000007" stroke="black" stroke-width="2" />
<line x1="398.122" y1="292.28710000000007" x2="397.9997" y2="292.30820000000006" stroke="black" stroke-width="2" />
<line x1="397.9997" y1="292.30820000000006" x2="397.96320000000003" y2="292.4070999999998" stroke="black" stroke-width="2" />
<line x1="397.96320000000003" y1="292.4070999999998" x2="397.8859" y2="292.4163999999997" stroke="black" stroke-width="2" />
<line x1="397.8859" y1="292.4163999999997" x2="397.8259" y2="292.3727999999997" stroke="black" stroke-width="2" />
<line x1="397.8259" y1="292.3727999999997" x2="398.00399999999996" y2="292.1816" stroke="black" stroke-width="2" />
<line x1="398.00399999999996" y1="292.1816" x2="398.1413" y2="292.14210000000026" stroke="black" stroke-width="2" />
<line x1="398.1413" y1="292.14210000000026" x2="398.83439999999996" y2="292.11570000000006" stroke="black" stroke-width="2" />
<line x1="398.83439999999996" y1="292.11570000000006" x2="398.9861" y2="292.57619999999986" stroke="black" stroke-width="2" />
<line x1="398.9861" y1="292.57619999999986" x2="399.0501" y2="292.65899999999976" stroke="black" stroke-width="2" />
<line x1="399.0501" y1="292.65899999999976" x2="398.9954" y2="292.79510000000005" stroke="black" stroke-width="2" />
<line x1="398.9954" y1="292.79510000000005" x2="399.07250000000005" y2="292.8997000000003" stroke="black" stroke-width="2" />
<line x1="399.07250000000005" y1="292.8997000000003" x2="398.908" y2="293.00059999999985" stroke="black" stroke-width="2" />
<line x1="398.908" y1="293.00059999999985" x2="398.3036" y2="293.63349999999997" stroke="black" stroke-width="2" />
<line x1="398.3036" y1="293.63349999999997" x2="398.1378" y2="293.62649999999985" stroke="black" stroke-width="2" />
<line x1="398.1378" y1="293.62649999999985" x2="397.571" y2="293.48469999999975" stroke="black" stroke-width="2" />
<line x1="397.571" y1="293.48469999999975" x2="397.7827" y2="293.3449000000003" stroke="black" stroke-width="2" />
<line x1="397.7827" y1="293.3449000000003" x2="397.692" y2="293.3771999999998" stroke="black" stroke-width="2" />
<line x1="397.692" y1="293.3771999999998" x2="397.5767" y2="293.2403999999998" stroke="black" stroke-width="2" />
</svg>