<svg xmlns="http://www.w3.org/2000/svg" width="800" height="400" viewBox="0 0 800 400">
<rect width="800" height="400" fill="white" stroke="black"/>
<line x1="50" y1="50" x2="50" y2="350" stroke="black" />
<line x1="50" y1="350" x2="750" y2="350" stroke="black" />
<polyline points="86.58536585365853,322.72727272727275 110.97560975609755,213.63636363636365 142.6829268292683,159.0909090909091 159.7560975609756,104.54545454545453 176.82926829268294,50.0 258.5365853658536,77.27272727272731 269.5121951219512,159.0909090909091 282.92682926829264,186.36363636363637 289.0243902439024,131.8181818181818 296.3414634146342,159.0909090909091 326.8292682926829,131.8181818181818 339.0243902439024,186.36363636363637 397.5609756097561,186.36363636363637 460.9756097560975,104.54545454545453 473.1707317073171,104.54545454545453 492.6829268292683,104.54545454545453 508.5365853658537,77.27272727272731 528.0487804878048,104.54545454545453 628.0487804878048,186.36363636363637 641.4634146341464,186.36363636363637 692.6829268292684,186.36363636363637 701.2195121951221,322.72727272727275 717.0731707317074,295.45454545454544 750.0,350.0 750.0,322.72727272727275" fill="none" stroke="blue" stroke-width="2"/>
<text x="400.0" y="25.0" text-anchor="middle" font-size="14" fill="black">Altimetria del Circuito Silverstone</text>
</svg>